<svg xmlns="http://www.w3.org/2000/svg" width="1920" height="1080"><path d="M961,555L986,452L834,438Z" fill="#fe943f" stroke="#fe943f" stroke-width="1.51"/><path d="M834,438L810,623L961,555Z" fill="#fe933e" stroke="#fe933e" stroke-width="1.51"/><path d="M986,452L856,303L834,438Z" fill="#fe9e42" stroke="#fe9e42" stroke-width="1.51"/><path d="M961,555L1076,426L986,452Z" fill="#fe8f3d" stroke="#fe8f3d" stroke-width="1.51"/><path d="M987,254L856,303L986,452Z" fill="#fea044" stroke="#fea044" stroke-width="1.51"/><path d="M834,438L682,520L810,623Z" fill="#fe9941" stroke="#fe9941" stroke-width="1.51"/><path d="M571,279L682,520L834,438Z" fill="#fea747" stroke="#fea747" stroke-width="1.51"/><path d="M1076,426L987,254L986,452Z" fill="#fe9640" stroke="#fe9640" stroke-width="1.51"/><path d="M961,555L1100,643L1076,426Z" fill="#fd8639" stroke="#fd8639" stroke-width="1.51"/><path d="M937,831L1100,643L961,555Z" fill="#fd7835" stroke="#fd7835" stroke-width="1.51"/><path d="M1278,420L1092,229L1076,426Z" fill="#fe8d3d" stroke="#fe8d3d" stroke-width="1.51"/><path d="M1076,426L1092,229L987,254Z" fill="#fe9a43" stroke="#fe9a43" stroke-width="1.51"/><path d="M856,303L571,279L834,438Z" fill="#feaa48" stroke="#feaa48" stroke-width="1.51"/><path d="M987,254L821,172L856,303Z" fill="#ffab4d" stroke="#ffab4d" stroke-width="1.51"/><path d="M960,145L821,172L987,254Z" fill="#ffae52" stroke="#ffae52" stroke-width="1.51"/><path d="M810,623L937,831L961,555Z" fill="#fd8038" stroke="#fd8038" stroke-width="1.51"/><path d="M608,680L784,803L810,623Z" fill="#fe863a" stroke="#fe863a" stroke-width="1.51"/><path d="M784,803L937,831L810,623Z" fill="#fe7836" stroke="#fe7836" stroke-width="1.51"/><path d="M1092,229L960,145L987,254Z" fill="#ffa64d" stroke="#ffa64d" stroke-width="1.51"/><path d="M682,520L608,680L810,623Z" fill="#fe943f" stroke="#fe943f" stroke-width="1.51"/><path d="M496,678L608,680L682,520Z" fill="#fe9843" stroke="#fe9843" stroke-width="1.51"/><path d="M937,831L1160,755L1100,643Z" fill="#fd6830" stroke="#fd6830" stroke-width="1.51"/><path d="M1100,643L1278,420L1076,426Z" fill="#fd8138" stroke="#fd8138" stroke-width="1.51"/><path d="M1373,643L1278,420L1100,643Z" fill="#fd7032" stroke="#fd7032" stroke-width="1.51"/><path d="M821,172L571,279L856,303Z" fill="#ffb250" stroke="#ffb250" stroke-width="1.51"/><path d="M784,803L727,904L937,831Z" fill="#f97333" stroke="#f97333" stroke-width="1.51"/><path d="M608,680L679,856L784,803Z" fill="#fd8038" stroke="#fd8038" stroke-width="1.51"/><path d="M717,-104L593,165L821,172Z" fill="#ffc362" stroke="#ffc362" stroke-width="1.51"/><path d="M821,172L593,165L571,279Z" fill="#ffbc57" stroke="#ffbc57" stroke-width="1.51"/><path d="M608,680L455,797L679,856Z" fill="#fe873d" stroke="#fe873d" stroke-width="1.51"/><path d="M412,508L496,678L682,520Z" fill="#ffa349" stroke="#ffa349" stroke-width="1.51"/><path d="M679,856L727,904L784,803Z" fill="#f97834" stroke="#f97834" stroke-width="1.51"/><path d="M1360,929L1322,729L1160,755Z" fill="#f94a28" stroke="#f94a28" stroke-width="1.51"/><path d="M597,975L727,904L679,856Z" fill="#f67734" stroke="#f67734" stroke-width="1.51"/><path d="M1092,229L1061,-3L960,145Z" fill="#ffac55" stroke="#ffac55" stroke-width="1.51"/><path d="M960,145L717,-104L821,172Z" fill="#ffbc5f" stroke="#ffbc5f" stroke-width="1.51"/><path d="M1267,138L1193,102L1092,229Z" fill="#ff9d4d" stroke="#ff9d4d" stroke-width="1.51"/><path d="M1160,755L1322,729L1100,643Z" fill="#fd602e" stroke="#fd602e" stroke-width="1.51"/><path d="M1106,959L1160,755L937,831Z" fill="#f75e2d" stroke="#f75e2d" stroke-width="1.51"/><path d="M1322,729L1373,643L1100,643Z" fill="#fd5e2e" stroke="#fd5e2e" stroke-width="1.51"/><path d="M1351,221L1267,138L1092,229Z" fill="#ff9548" stroke="#ff9548" stroke-width="1.51"/><path d="M571,279L412,508L682,520Z" fill="#feae4d" stroke="#feae4d" stroke-width="1.51"/><path d="M384,271L412,508L571,279Z" fill="#ffbb57" stroke="#ffbb57" stroke-width="1.51"/><path d="M1351,221L1092,229L1278,420Z" fill="#ff8c3f" stroke="#ff8c3f" stroke-width="1.51"/><path d="M971,1031L1106,959L937,831Z" fill="#f35d2b" stroke="#f35d2b" stroke-width="1.51"/><path d="M1029,-60L1061,-3L1119,-175Z" fill="#ffb467" stroke="#ffb467" stroke-width="1.51"/><path d="M1193,102L1061,-3L1092,229Z" fill="#ffa854" stroke="#ffa854" stroke-width="1.51"/><path d="M1535,285L1351,221L1278,420Z" fill="#fb8139" stroke="#fb8139" stroke-width="1.51"/><path d="M496,678L455,797L608,680Z" fill="#ff9143" stroke="#ff9143" stroke-width="1.51"/><path d="M250,756L455,797L496,678Z" fill="#ff954a" stroke="#ff954a" stroke-width="1.51"/><path d="M727,904L971,1031L937,831Z" fill="#f5692f" stroke="#f5692f" stroke-width="1.51"/><path d="M805,1094L971,1031L727,904Z" fill="#ef662f" stroke="#ef662f" stroke-width="1.51"/><path d="M1119,-175L1061,-3L1326,-105Z" fill="#ffad65" stroke="#ffad65" stroke-width="1.51"/><path d="M1061,-3L1029,-60L960,145Z" fill="#ffb35f" stroke="#ffb35f" stroke-width="1.51"/><path d="M593,165L384,271L571,279Z" fill="#ffc25d" stroke="#ffc25d" stroke-width="1.51"/><path d="M442,41L384,271L593,165Z" fill="#ffcb67" stroke="#ffcb67" stroke-width="1.51"/><path d="M1373,643L1473,567L1278,420Z" fill="#fa6b31" stroke="#fa6b31" stroke-width="1.51"/><path d="M1432,837L1473,567L1373,643Z" fill="#f7522a" stroke="#f7522a" stroke-width="1.51"/><path d="M455,797L597,975L679,856Z" fill="#f9803a" stroke="#f9803a" stroke-width="1.51"/><path d="M1473,567L1492,503L1278,420Z" fill="#f96e31" stroke="#f96e31" stroke-width="1.51"/><path d="M597,975L805,1094L727,904Z" fill="#f16f31" stroke="#f16f31" stroke-width="1.51"/><path d="M1029,-60L717,-104L960,145Z" fill="#ffbd65" stroke="#ffbd65" stroke-width="1.51"/><path d="M1351,221L1414,125L1267,138Z" fill="#fe9148" stroke="#fe9148" stroke-width="1.51"/><path d="M1267,138L1326,-105L1193,102Z" fill="#ff9f55" stroke="#ff9f55" stroke-width="1.51"/><path d="M1535,285L1414,125L1351,221Z" fill="#fc8941" stroke="#fc8941" stroke-width="1.51"/><path d="M412,508L288,597L496,678Z" fill="#ffa851" stroke="#ffa851" stroke-width="1.51"/><path d="M455,797L409,964L597,975Z" fill="#f8833e" stroke="#f8833e" stroke-width="1.51"/><path d="M263,459L288,597L412,508Z" fill="#ffb559" stroke="#ffb559" stroke-width="1.51"/><path d="M1322,729L1432,837L1373,643Z" fill="#f94c29" stroke="#f94c29" stroke-width="1.51"/><path d="M1473,567L1604,488L1492,503Z" fill="#f5662e" stroke="#f5662e" stroke-width="1.51"/><path d="M1360,929L1432,837L1322,729Z" fill="#f44125" stroke="#f44125" stroke-width="1.51"/><path d="M1360,929L1160,755L1106,959Z" fill="#f64b28" stroke="#f64b28" stroke-width="1.51"/><path d="M1260,1079L1360,929L1106,959Z" fill="#ee3e24" stroke="#ee3e24" stroke-width="1.51"/><path d="M1072,1126L1106,959L971,1031Z" fill="#eb532b" stroke="#eb532b" stroke-width="1.51"/><path d="M717,-104L671,-105L593,165Z" fill="#ffca6d" stroke="#ffca6d" stroke-width="1.51"/><path d="M384,271L263,459L412,508Z" fill="#ffbc5b" stroke="#ffbc5b" stroke-width="1.51"/><path d="M671,-105L442,41L593,165Z" fill="#ffcd6d" stroke="#ffcd6d" stroke-width="1.51"/><path d="M384,271L206,271L263,459Z" fill="#ffc663" stroke="#ffc663" stroke-width="1.51"/><path d="M968,1186L1072,1126L971,1031Z" fill="#e4562e" stroke="#e4562e" stroke-width="1.51"/><path d="M1604,488L1535,285L1492,503Z" fill="#f56e30" stroke="#f56e30" stroke-width="1.51"/><path d="M1492,503L1535,285L1278,420Z" fill="#f97634" stroke="#f97634" stroke-width="1.51"/><path d="M597,975L547,1141L805,1094Z" fill="#ea7035" stroke="#ea7035" stroke-width="1.51"/><path d="M290,903L409,964L455,797Z" fill="#fa8b45" stroke="#fa8b45" stroke-width="1.51"/><path d="M1360,929L1407,1008L1432,837Z" fill="#ee3522" stroke="#ee3522" stroke-width="1.51"/><path d="M1072,1126L1260,1079L1106,959Z" fill="#e94829" stroke="#e94829" stroke-width="1.51"/><path d="M422,-101L255,103L442,41Z" fill="#ffda7b" stroke="#ffda7b" stroke-width="1.51"/><path d="M717,-104L790,-193L671,-105Z" fill="#ffcc76" stroke="#ffcc76" stroke-width="1.51"/><path d="M1029,-60L790,-193L717,-104Z" fill="#ffc472" stroke="#ffc472" stroke-width="1.51"/><path d="M989,-226L790,-193L1029,-60Z" fill="#ffc174" stroke="#ffc174" stroke-width="1.51"/><path d="M1326,-105L1061,-3L1193,102Z" fill="#ffa65c" stroke="#ffa65c" stroke-width="1.51"/><path d="M1701,589L1604,488L1473,567Z" fill="#f25f2b" stroke="#f25f2b" stroke-width="1.51"/><path d="M1072,1126L1203,1370L1260,1079Z" fill="#dc3f2b" stroke="#dc3f2b" stroke-width="1.51"/><path d="M805,1094L968,1186L971,1031Z" fill="#e65d30" stroke="#e65d30" stroke-width="1.51"/><path d="M980,1303L968,1186L811,1369Z" fill="#cf5632" stroke="#cf5632" stroke-width="1.51"/><path d="M288,597L250,756L496,678Z" fill="#ffa250" stroke="#ffa250" stroke-width="1.51"/><path d="M121,578L250,756L288,597Z" fill="#ffab5a" stroke="#ffab5a" stroke-width="1.51"/><path d="M1119,-175L989,-226L1029,-60Z" fill="#ffb96f" stroke="#ffb96f" stroke-width="1.51"/><path d="M1260,1079L1407,1008L1360,929Z" fill="#ea3322" stroke="#ea3322" stroke-width="1.51"/><path d="M1668,825L1701,589L1473,567Z" fill="#f04b27" stroke="#f04b27" stroke-width="1.51"/><path d="M1588,55L1421,-21L1414,125Z" fill="#fc934f" stroke="#fc934f" stroke-width="1.51"/><path d="M1414,125L1421,-21L1267,138Z" fill="#ff974f" stroke="#ff974f" stroke-width="1.51"/><path d="M1421,-21L1326,-105L1267,138Z" fill="#ff9c57" stroke="#ff9c57" stroke-width="1.51"/><path d="M1119,-175L1262,-266L989,-226Z" fill="#ffb574" stroke="#ffb574" stroke-width="1.51"/><path d="M263,459L121,578L288,597Z" fill="#ffb65f" stroke="#ffb65f" stroke-width="1.51"/><path d="M255,103L206,271L384,271Z" fill="#ffd16e" stroke="#ffd16e" stroke-width="1.51"/><path d="M250,756L290,903L455,797Z" fill="#fe944b" stroke="#fe944b" stroke-width="1.51"/><path d="M471,1128L597,975L409,964Z" fill="#f07c3d" stroke="#f07c3d" stroke-width="1.51"/><path d="M471,1128L547,1141L597,975Z" fill="#eb773c" stroke="#eb773c" stroke-width="1.51"/><path d="M442,41L255,103L384,271Z" fill="#fed470" stroke="#fed470" stroke-width="1.51"/><path d="M422,-101L442,41L671,-105Z" fill="#ffd479" stroke="#ffd479" stroke-width="1.51"/><path d="M1535,285L1588,55L1414,125Z" fill="#f98a45" stroke="#f98a45" stroke-width="1.51"/><path d="M1604,488L1647,325L1535,285Z" fill="#f37132" stroke="#f37132" stroke-width="1.51"/><path d="M452,-183L422,-101L671,-105Z" fill="#ffd880" stroke="#ffd880" stroke-width="1.51"/><path d="M218,1161L471,1128L409,964Z" fill="#eb8246" stroke="#eb8246" stroke-width="1.51"/><path d="M250,756L48,940L290,903Z" fill="#fd9552" stroke="#fd9552" stroke-width="1.51"/><path d="M90,466L121,578L263,459Z" fill="#ffbc64" stroke="#ffbc64" stroke-width="1.51"/><path d="M1604,488L1894,455L1647,325Z" fill="#ec6831" stroke="#ec6831" stroke-width="1.51"/><path d="M1668,825L1473,567L1432,837Z" fill="#f34125" stroke="#f34125" stroke-width="1.51"/><path d="M1647,325L1588,55L1535,285Z" fill="#f5803d" stroke="#f5803d" stroke-width="1.51"/><path d="M1489,-305L1262,-266L1326,-105Z" fill="#ffa56d" stroke="#ffa56d" stroke-width="1.51"/><path d="M228,-134L155,4L255,103Z" fill="#ffe188" stroke="#ffe188" stroke-width="1.51"/><path d="M546,-265L452,-183L671,-105Z" fill="#ffd783" stroke="#ffd783" stroke-width="1.51"/><path d="M546,-265L671,-105L790,-193Z" fill="#ffd17d" stroke="#ffd17d" stroke-width="1.51"/><path d="M206,271L90,466L263,459Z" fill="#ffc366" stroke="#ffc366" stroke-width="1.51"/><path d="M255,103L121,275L206,271Z" fill="#ffd373" stroke="#ffd373" stroke-width="1.51"/><path d="M57,91L121,275L255,103Z" fill="#ffd97d" stroke="#ffd97d" stroke-width="1.51"/><path d="M121,275L90,466L206,271Z" fill="#ffca6c" stroke="#ffca6c" stroke-width="1.51"/><path d="M968,1186L980,1303L1072,1126Z" fill="#db5230" stroke="#db5230" stroke-width="1.51"/><path d="M1260,1079L1520,1097L1407,1008Z" fill="#e32c23" stroke="#e32c23" stroke-width="1.51"/><path d="M811,1369L968,1186L805,1094Z" fill="#da5d33" stroke="#da5d33" stroke-width="1.51"/><path d="M613,1257L805,1094L547,1141Z" fill="#e26c37" stroke="#e26c37" stroke-width="1.51"/><path d="M471,1128L613,1257L547,1141Z" fill="#e2733e" stroke="#e2733e" stroke-width="1.51"/><path d="M1489,-305L1326,-105L1421,-21Z" fill="#ff9f63" stroke="#ff9f63" stroke-width="1.51"/><path d="M1326,-105L1262,-266L1119,-175Z" fill="#ffab6c" stroke="#ffab6c" stroke-width="1.51"/><path d="M989,-226L546,-265L790,-193Z" fill="#ffcd7f" stroke="#ffcd7f" stroke-width="1.51"/><path d="M1686,923L1668,825L1432,837Z" fill="#ea2d20" stroke="#ea2d20" stroke-width="1.51"/><path d="M1262,-266L546,-265L989,-226Z" fill="#ffc57d" stroke="#ffc57d" stroke-width="1.51"/><path d="M1407,1008L1686,923L1432,837Z" fill="#ea2c1f" stroke="#ea2c1f" stroke-width="1.51"/><path d="M1493,1314L1520,1097L1260,1079Z" fill="#d92525" stroke="#d92525" stroke-width="1.51"/><path d="M613,1257L811,1369L805,1094Z" fill="#d76336" stroke="#d76336" stroke-width="1.51"/><path d="M980,1303L1203,1370L1072,1126Z" fill="#d1472e" stroke="#d1472e" stroke-width="1.51"/><path d="M228,-134L255,103L422,-101Z" fill="#ffe086" stroke="#ffe086" stroke-width="1.51"/><path d="M-127,491L-40,624L90,466Z" fill="#ffbf6f" stroke="#ffbf6f" stroke-width="1.51"/><path d="M228,-134L422,-101L281,-193Z" fill="#ffe48f" stroke="#ffe48f" stroke-width="1.51"/><path d="M1668,825L1808,612L1701,589Z" fill="#e94628" stroke="#e94628" stroke-width="1.51"/><path d="M1520,1097L1686,923L1407,1008Z" fill="#e2201f" stroke="#e2201f" stroke-width="1.51"/><path d="M1701,589L1894,455L1604,488Z" fill="#ea5f2f" stroke="#ea5f2f" stroke-width="1.51"/><path d="M1647,325L1802,229L1588,55Z" fill="#f17f3f" stroke="#f17f3f" stroke-width="1.51"/><path d="M1865,867L1808,612L1668,825Z" fill="#e53326" stroke="#e53326" stroke-width="1.51"/><path d="M281,-193L422,-101L452,-183Z" fill="#ffe08c" stroke="#ffe08c" stroke-width="1.51"/><path d="M121,578L33,787L250,756Z" fill="#ffa65c" stroke="#ffa65c" stroke-width="1.51"/><path d="M290,903L218,1161L409,964Z" fill="#f38848" stroke="#f38848" stroke-width="1.51"/><path d="M471,1128L479,1385L613,1257Z" fill="#d6713f" stroke="#d6713f" stroke-width="1.51"/><path d="M-40,624L33,787L121,578Z" fill="#ffae65" stroke="#ffae65" stroke-width="1.51"/><path d="M-40,624L121,578L90,466Z" fill="#ffba69" stroke="#ffba69" stroke-width="1.51"/><path d="M546,-265L281,-193L452,-183Z" fill="#ffe08f" stroke="#ffe08f" stroke-width="1.51"/><path d="M1120,1475L1203,1370L980,1303Z" fill="#c0412f" stroke="#c0412f" stroke-width="1.51"/><path d="M1588,55L1705,-59L1421,-21Z" fill="#fa9153" stroke="#fa9153" stroke-width="1.51"/><path d="M1894,455L1802,229L1647,325Z" fill="#e96f35" stroke="#e96f35" stroke-width="1.51"/><path d="M-125,-111L57,91L155,4Z" fill="#ffe694" stroke="#ffe694" stroke-width="1.51"/><path d="M155,4L57,91L255,103Z" fill="#ffe084" stroke="#ffe084" stroke-width="1.51"/><path d="M811,1369L894,1429L980,1303Z" fill="#c35434" stroke="#c35434" stroke-width="1.51"/><path d="M773,1475L894,1429L811,1369Z" fill="#be5736" stroke="#be5736" stroke-width="1.51"/><path d="M1493,1314L1619,1123L1520,1097Z" fill="#d31823" stroke="#d31823" stroke-width="1.51"/><path d="M1520,1097L1619,1123L1686,923Z" fill="#dc161e" stroke="#dc161e" stroke-width="1.51"/><path d="M1992,485L1894,455L1808,612Z" fill="#e05a31" stroke="#e05a31" stroke-width="1.51"/><path d="M-92,319L90,466L121,275Z" fill="#ffcc72" stroke="#ffcc72" stroke-width="1.51"/><path d="M1203,1370L1308,1362L1260,1079Z" fill="#d03229" stroke="#d03229" stroke-width="1.51"/><path d="M1373,1425L1308,1362L1203,1370Z" fill="#be2a2a" stroke="#be2a2a" stroke-width="1.51"/><path d="M48,940L218,1161L290,903Z" fill="#f58d50" stroke="#f58d50" stroke-width="1.51"/><path d="M669,1492L773,1475L811,1369Z" fill="#be5c37" stroke="#be5c37" stroke-width="1.51"/><path d="M1848,97L1705,-59L1588,55Z" fill="#f18b4f" stroke="#f18b4f" stroke-width="1.51"/><path d="M-35,825L48,940L33,787Z" fill="#ff9c5e" stroke="#ff9c5e" stroke-width="1.51"/><path d="M33,787L48,940L250,756Z" fill="#ff9b59" stroke="#ff9b59" stroke-width="1.51"/><path d="M1262,-266L1489,-305L546,-265Z" fill="#ffba7a" stroke="#ffba7a" stroke-width="1.51"/><path d="M1639,-245L1489,-305L1421,-21Z" fill="#fe9c65" stroke="#fe9c65" stroke-width="1.51"/><path d="M1808,612L1894,455L1701,589Z" fill="#e5592f" stroke="#e5592f" stroke-width="1.51"/><path d="M1802,229L1848,97L1588,55Z" fill="#ee8547" stroke="#ee8547" stroke-width="1.51"/><path d="M1865,867L1668,825L1686,923Z" fill="#e12622" stroke="#e12622" stroke-width="1.51"/><path d="M242,1358L479,1385L471,1128Z" fill="#d27747" stroke="#d27747" stroke-width="1.51"/><path d="M669,1492L811,1369L613,1257Z" fill="#c46038" stroke="#c46038" stroke-width="1.51"/><path d="M894,1429L1120,1475L980,1303Z" fill="#bd4b32" stroke="#bd4b32" stroke-width="1.51"/><path d="M-40,624L-35,825L33,787Z" fill="#ffa564" stroke="#ffa564" stroke-width="1.51"/><path d="M1619,1123L1777,983L1686,923Z" fill="#da151f" stroke="#da151f" stroke-width="1.51"/><path d="M57,91L-46,162L121,275Z" fill="#ffdb81" stroke="#ffdb81" stroke-width="1.51"/><path d="M-125,-111L-46,162L57,91Z" fill="#ffe693" stroke="#ffe693" stroke-width="1.51"/><path d="M-14,-241L155,4L228,-134Z" fill="#ffe999" stroke="#ffe999" stroke-width="1.51"/><path d="M773,1475L1120,1475L894,1429Z" fill="#bd5133" stroke="#bd5133" stroke-width="1.51"/><path d="M-46,162L-92,319L121,275Z" fill="#ffd67d" stroke="#ffd67d" stroke-width="1.51"/><path d="M-40,624L-247,794L-35,825Z" fill="#ffa86a" stroke="#ffa86a" stroke-width="1.51"/><path d="M1619,1123L1894,1142L1777,983Z" fill="#d00f22" stroke="#d00f22" stroke-width="1.51"/><path d="M1308,1362L1493,1314L1260,1079Z" fill="#d02927" stroke="#d02927" stroke-width="1.51"/><path d="M1373,1425L1493,1314L1308,1362Z" fill="#be2327" stroke="#be2327" stroke-width="1.51"/><path d="M1705,-59L1639,-245L1421,-21Z" fill="#fa955b" stroke="#fa955b" stroke-width="1.51"/><path d="M1946,117L1848,97L1802,229Z" fill="#e67f47" stroke="#e67f47" stroke-width="1.51"/><path d="M1777,983L1865,867L1686,923Z" fill="#dc1d21" stroke="#dc1d21" stroke-width="1.51"/><path d="M773,1475L669,1492L1120,1475Z" fill="#be5535" stroke="#be5535" stroke-width="1.51"/><path d="M479,1385L669,1492L613,1257Z" fill="#c3673c" stroke="#c3673c" stroke-width="1.51"/><path d="M-92,319L-127,491L90,466Z" fill="#ffc874" stroke="#ffc874" stroke-width="1.51"/><path d="M1790,-119L1639,-245L1705,-59Z" fill="#f49360" stroke="#f49360" stroke-width="1.51"/><path d="M1120,1475L1373,1425L1203,1370Z" fill="#bc322b" stroke="#bc322b" stroke-width="1.51"/><path d="M1992,485L1935,285L1894,455Z" fill="#de6436" stroke="#de6436" stroke-width="1.51"/><path d="M1894,455L1935,285L1802,229Z" fill="#e36e38" stroke="#e36e38" stroke-width="1.51"/><path d="M242,1358L462,1440L479,1385Z" fill="#c27247" stroke="#c27247" stroke-width="1.51"/><path d="M479,1385L462,1440L669,1492Z" fill="#c0693f" stroke="#c0693f" stroke-width="1.51"/><path d="M48,940L132,1197L218,1161Z" fill="#ec8a55" stroke="#ec8a55" stroke-width="1.51"/><path d="M-60,1036L132,1197L48,940Z" fill="#f18f59" stroke="#f18f59" stroke-width="1.51"/><path d="M242,1358L471,1128L218,1161Z" fill="#de804b" stroke="#de804b" stroke-width="1.51"/><path d="M2036,-55L1790,-119L1848,97Z" fill="#e78857" stroke="#e78857" stroke-width="1.51"/><path d="M1848,97L1790,-119L1705,-59Z" fill="#ee8b56" stroke="#ee8b56" stroke-width="1.51"/><path d="M2040,606L1992,485L1808,612Z" fill="#dc5330" stroke="#dc5330" stroke-width="1.51"/><path d="M-92,319L-183,475L-127,491Z" fill="#ffca7b" stroke="#ffca7b" stroke-width="1.51"/><path d="M-127,491L-212,615L-40,624Z" fill="#ffbd74" stroke="#ffbd74" stroke-width="1.51"/><path d="M-236,263L-183,475L-92,319Z" fill="#ffd180" stroke="#ffd180" stroke-width="1.51"/><path d="M132,1197L242,1358L218,1161Z" fill="#db8252" stroke="#db8252" stroke-width="1.51"/><path d="M1373,1425L1409,1467L1493,1314Z" fill="#b82027" stroke="#b82027" stroke-width="1.51"/><path d="M1719,1361L1894,1142L1619,1123Z" fill="#c50824" stroke="#c50824" stroke-width="1.51"/><path d="M1120,1475L1409,1467L1373,1425Z" fill="#bc2929" stroke="#bc2929" stroke-width="1.51"/><path d="M1665,1504L1409,1467L1120,1475Z" fill="#b82227" stroke="#b82227" stroke-width="1.51"/><path d="M1935,285L1946,117L1802,229Z" fill="#e37942" stroke="#e37942" stroke-width="1.51"/><path d="M2036,-55L1946,117L2115,56Z" fill="#d98152" stroke="#d98152" stroke-width="1.51"/><path d="M132,1197L107,1317L242,1358Z" fill="#d48155" stroke="#d48155" stroke-width="1.51"/><path d="M-35,825L-60,1036L48,940Z" fill="#fb975c" stroke="#fb975c" stroke-width="1.51"/><path d="M-275,945L-60,1036L-35,825Z" fill="#fc9a63" stroke="#fc9a63" stroke-width="1.51"/><path d="M-183,475L-212,615L-127,491Z" fill="#ffc379" stroke="#ffc379" stroke-width="1.51"/><path d="M2115,56L1946,117L1935,285Z" fill="#db7b47" stroke="#db7b47" stroke-width="1.51"/><path d="M2043,756L2040,606L1808,612Z" fill="#da432c" stroke="#da432c" stroke-width="1.51"/><path d="M-26,1264L107,1317L132,1197Z" fill="#d9855a" stroke="#d9855a" stroke-width="1.51"/><path d="M242,1358L298,1493L462,1440Z" fill="#c1754b" stroke="#c1754b" stroke-width="1.51"/><path d="M1639,-245L1759,-291L1489,-305Z" fill="#fb9b6c" stroke="#fb9b6c" stroke-width="1.51"/><path d="M1790,-119L1759,-291L1639,-245Z" fill="#f49567" stroke="#f49567" stroke-width="1.51"/><path d="M2065,-267L1759,-291L1790,-119Z" fill="#eb926a" stroke="#eb926a" stroke-width="1.51"/><path d="M281,-193L28,-271L228,-134Z" fill="#ffeb9d" stroke="#ffeb9d" stroke-width="1.51"/><path d="M-46,162L-236,263L-92,319Z" fill="#ffd985" stroke="#ffd985" stroke-width="1.51"/><path d="M546,-265L28,-271L281,-193Z" fill="#ffe99b" stroke="#ffe99b" stroke-width="1.51"/><path d="M1489,-305L28,-271L546,-265Z" fill="#ffd386" stroke="#ffd386" stroke-width="1.51"/><path d="M-183,475L-236,263L-212,615Z" fill="#ffcb7f" stroke="#ffcb7f" stroke-width="1.51"/><path d="M-310,121L-236,263L-46,162Z" fill="#ffe191" stroke="#ffe191" stroke-width="1.51"/><path d="M1865,867L2043,756L1808,612Z" fill="#de3328" stroke="#de3328" stroke-width="1.51"/><path d="M2034,944L2043,756L1865,867Z" fill="#d22325" stroke="#d22325" stroke-width="1.51"/><path d="M2034,944L1865,867L1777,983Z" fill="#d51823" stroke="#d51823" stroke-width="1.51"/><path d="M28,-271L-14,-241L228,-134Z" fill="#ffeea5" stroke="#ffeea5" stroke-width="1.51"/><path d="M56,1481L298,1493L242,1358Z" fill="#c27a53" stroke="#c27a53" stroke-width="1.51"/><path d="M462,1440L298,1493L669,1492Z" fill="#c06c43" stroke="#c06c43" stroke-width="1.51"/><path d="M1719,1361L1619,1123L1493,1314Z" fill="#c50d22" stroke="#c50d22" stroke-width="1.51"/><path d="M-14,-241L-125,-111L155,4Z" fill="#ffeda0" stroke="#ffeda0" stroke-width="1.51"/><path d="M-212,615L-247,794L-40,624Z" fill="#ffb271" stroke="#ffb271" stroke-width="1.51"/><path d="M-60,1036L-26,1264L132,1197Z" fill="#e78b5d" stroke="#e78b5d" stroke-width="1.51"/><path d="M-310,121L-247,794L-212,615Z" fill="#ffc77f" stroke="#ffc77f" stroke-width="1.51"/><path d="M1665,1504L1719,1361L1493,1314Z" fill="#b10b23" stroke="#b10b23" stroke-width="1.51"/><path d="M107,1317L56,1481L242,1358Z" fill="#c57d56" stroke="#c57d56" stroke-width="1.51"/><path d="M-275,945L-125,1118L-60,1036Z" fill="#f59665" stroke="#f59665" stroke-width="1.51"/><path d="M-125,1118L-26,1264L-60,1036Z" fill="#ea8f62" stroke="#ea8f62" stroke-width="1.51"/><path d="M2000,1096L2034,944L1777,983Z" fill="#cc0c22" stroke="#cc0c22" stroke-width="1.51"/><path d="M1894,1142L2000,1096L1777,983Z" fill="#c90923" stroke="#c90923" stroke-width="1.51"/><path d="M2017,1333L2000,1096L1894,1142Z" fill="#b90026" stroke="#b90026" stroke-width="1.51"/><path d="M1946,117L2036,-55L1848,97Z" fill="#e28350" stroke="#e28350" stroke-width="1.51"/><path d="M2115,56L1935,285L2240,289Z" fill="#d17243" stroke="#d17243" stroke-width="1.51"/><path d="M1935,285L1992,485L2212,451Z" fill="#d36136" stroke="#d36136" stroke-width="1.51"/><path d="M-247,794L-275,945L-35,825Z" fill="#ffa26b" stroke="#ffa26b" stroke-width="1.51"/><path d="M-110,1500L56,1481L-26,1264Z" fill="#c38160" stroke="#c38160" stroke-width="1.51"/><path d="M-310,121L-275,945L-247,794Z" fill="#ffbc7c" stroke="#ffbc7c" stroke-width="1.51"/><path d="M1719,1361L1887,1302L1894,1142Z" fill="#b70325" stroke="#b70325" stroke-width="1.51"/><path d="M1409,1467L1665,1504L1493,1314Z" fill="#b41725" stroke="#b41725" stroke-width="1.51"/><path d="M669,1492L1665,1504L1120,1475Z" fill="#bd3b2d" stroke="#bd3b2d" stroke-width="1.51"/><path d="M1780,1517L1665,1504L669,1492Z" fill="#b92428" stroke="#b92428" stroke-width="1.51"/><path d="M-236,263L-310,121L-212,615Z" fill="#ffd586" stroke="#ffd586" stroke-width="1.51"/><path d="M-125,-111L-310,121L-46,162Z" fill="#ffe99a" stroke="#ffe99a" stroke-width="1.51"/><path d="M1780,1517L1887,1302L1719,1361Z" fill="#a70425" stroke="#a70425" stroke-width="1.51"/><path d="M2204,1027L2138,843L2034,944Z" fill="#bf1423" stroke="#bf1423" stroke-width="1.51"/><path d="M2034,944L2138,843L2043,756Z" fill="#c92326" stroke="#c92326" stroke-width="1.51"/><path d="M2043,756L2202,607L2040,606Z" fill="#cd412d" stroke="#cd412d" stroke-width="1.51"/><path d="M2212,451L1992,485L2040,606Z" fill="#cf5633" stroke="#cf5633" stroke-width="1.51"/><path d="M2138,843L2202,607L2043,756Z" fill="#c9312a" stroke="#c9312a" stroke-width="1.51"/><path d="M2202,607L2212,451L2040,606Z" fill="#c74f31" stroke="#c74f31" stroke-width="1.51"/><path d="M-219,1302L-26,1264L-125,1118Z" fill="#df8c66" stroke="#df8c66" stroke-width="1.51"/><path d="M-26,1264L56,1481L107,1317Z" fill="#cb815c" stroke="#cb815c" stroke-width="1.51"/><path d="M2115,56L2119,-24L2036,-55Z" fill="#d48156" stroke="#d48156" stroke-width="1.51"/><path d="M2036,-55L2065,-267L1790,-119Z" fill="#e28c63" stroke="#e28c63" stroke-width="1.51"/><path d="M2240,289L2119,-24L2115,56Z" fill="#cb7a4c" stroke="#cb7a4c" stroke-width="1.51"/><path d="M2212,451L2240,289L1935,285Z" fill="#cb6539" stroke="#cb6539" stroke-width="1.51"/><path d="M2202,607L2240,289L2212,451Z" fill="#c25835" stroke="#c25835" stroke-width="1.51"/><path d="M1665,1504L1780,1517L1719,1361Z" fill="#aa0724" stroke="#aa0724" stroke-width="1.51"/><path d="M1887,1302L2017,1333L1894,1142Z" fill="#b30026" stroke="#b30026" stroke-width="1.51"/><path d="M2000,1096L2204,1027L2034,944Z" fill="#bd0a23" stroke="#bd0a23" stroke-width="1.51"/><path d="M-294,1509L1780,1517L669,1492Z" fill="#bf5e38" stroke="#bf5e38" stroke-width="1.51"/><path d="M2119,-24L2098,-171L2036,-55Z" fill="#d5855d" stroke="#d5855d" stroke-width="1.51"/><path d="M2240,289L2098,-171L2119,-24Z" fill="#cc7d53" stroke="#cc7d53" stroke-width="1.51"/><path d="M-125,-111L-317,-117L-310,121Z" fill="#fff0a9" stroke="#fff0a9" stroke-width="1.51"/><path d="M-239,-265L-317,-117L-125,-111Z" fill="#fff5b4" stroke="#fff5b4" stroke-width="1.51"/><path d="M-239,-265L-125,-111L-14,-241Z" fill="#fff4b2" stroke="#fff4b2" stroke-width="1.51"/><path d="M28,-271L-239,-265L-14,-241Z" fill="#fff5b4" stroke="#fff5b4" stroke-width="1.51"/><path d="M1489,-305L-239,-265L28,-271Z" fill="#ffe395" stroke="#ffe395" stroke-width="1.51"/><path d="M-317,-117L-321,1117L-310,121Z" fill="#ffd489" stroke="#ffd489" stroke-width="1.51"/><path d="M-310,121L-321,1117L-275,945Z" fill="#ffaf77" stroke="#ffaf77" stroke-width="1.51"/><path d="M-275,945L-321,1117L-125,1118Z" fill="#f3976b" stroke="#f3976b" stroke-width="1.51"/><path d="M2098,-171L2065,-267L2036,-55Z" fill="#d78964" stroke="#d78964" stroke-width="1.51"/><path d="M-321,1117L-219,1302L-125,1118Z" fill="#e8926c" stroke="#e8926c" stroke-width="1.51"/><path d="M2138,843L2204,1027L2202,607Z" fill="#c02427" stroke="#c02427" stroke-width="1.51"/><path d="M2060,1487L2017,1333L1887,1302Z" fill="#9d0026" stroke="#9d0026" stroke-width="1.51"/><path d="M2239,1215L2204,1027L2000,1096Z" fill="#af0425" stroke="#af0425" stroke-width="1.51"/><path d="M2202,607L2239,1215L2240,289Z" fill="#c0362c" stroke="#c0362c" stroke-width="1.51"/><path d="M-294,1509L-110,1500L-219,1302Z" fill="#c4856b" stroke="#c4856b" stroke-width="1.51"/><path d="M-219,1302L-110,1500L-26,1264Z" fill="#cb8565" stroke="#cb8565" stroke-width="1.51"/><path d="M56,1481L-110,1500L298,1493Z" fill="#c27d5a" stroke="#c27d5a" stroke-width="1.51"/><path d="M298,1493L-294,1509L669,1492Z" fill="#c27951" stroke="#c27951" stroke-width="1.51"/><path d="M2017,1333L2130,1285L2000,1096Z" fill="#ab0026" stroke="#ab0026" stroke-width="1.51"/><path d="M2111,1498L2130,1285L2017,1333Z" fill="#940026" stroke="#940026" stroke-width="1.51"/><path d="M2130,1285L2239,1215L2000,1096Z" fill="#a90026" stroke="#a90026" stroke-width="1.51"/><path d="M2204,1027L2239,1215L2202,607Z" fill="#b61123" stroke="#b61123" stroke-width="1.51"/><path d="M2111,1498L2239,1215L2130,1285Z" fill="#930026" stroke="#930026" stroke-width="1.51"/><path d="M1780,1517L2060,1487L1887,1302Z" fill="#a00126" stroke="#a00126" stroke-width="1.51"/><path d="M1780,1517L2111,1498L2060,1487Z" fill="#990026" stroke="#990026" stroke-width="1.51"/><path d="M2060,1487L2111,1498L2017,1333Z" fill="#920026" stroke="#920026" stroke-width="1.51"/><path d="M-321,1117L-294,1509L-219,1302Z" fill="#d48c6f" stroke="#d48c6f" stroke-width="1.51"/><path d="M-110,1500L-294,1509L298,1493Z" fill="#c38160" stroke="#c38160" stroke-width="1.51"/></svg>